<svg enable-background="new 0 0 500 500" height="500px" id="Layer_1" version="1.1" viewBox="0 0 500 500" width="500px" xml:space="preserve" xmlns="http://www.w3.org/2000/svg" xmlns:xlink="http://www.w3.org/1999/xlink"><path clip-rule="evenodd" d="M410.276,31.949c31.335,50.698,48.689,109.576,48.689,167.716  c0,25.625-2.633,50.698-9.086,74.957c-4.719,16.717-18.437,29.891-36.341,29.891c-10.805,0-20.617-4.719-27.254-12.261v3.175  c0,20.079-16.267,36.345-36.346,36.345c-20.078,0-36.34-16.266-36.34-36.345v18.172c0,20.079-16.262,36.34-36.341,36.34  s-36.344-16.261-36.344-36.34v118.112c0,20.078-16.262,36.34-36.34,36.34c-20.079,0-36.343-16.262-36.343-36.34V224.465  c0-10.08-8.177-18.17-18.17-18.17c-1.728,0-3.365,0.275-4.996,0.728l-51.338,20.895c-4.906,2.457-10.446,3.913-16.351,3.913  c-20.079,0-36.342-16.264-36.342-36.343c0-15.083,9.268-28.071,22.35-33.618c58.968-30.434,106.209-67.777,139.281-129.92H410.276z" fill="#B8CAFF" fill-rule="evenodd"/></svg>